<?xml version="1.0" encoding="UTF-8" standalone="no"?>
<!DOCTYPE svg PUBLIC "-//W3C//DTD SVG 1.1//EN" "http://www.w3.org/Graphics/SVG/1.1/DTD/svg11.dtd">
<svg width="100%" height="100%" viewBox="0 0 2304 1772" version="1.1" xmlns="http://www.w3.org/2000/svg" xmlns:xlink="http://www.w3.org/1999/xlink" xml:space="preserve" xmlns:serif="http://www.serif.com/" style="fill-rule:evenodd;clip-rule:evenodd;stroke-linejoin:round;stroke-miterlimit:2;">
    <g transform="matrix(1,0,0,1,-12378.1,-2066.64)">
        <g id="Wortmarke-negativ" serif:id="Wortmarke negativ" transform="matrix(0.557143,0,0,0.75,12378.1,2066.64)">
            <rect x="0" y="0" width="4133.86" height="2362.2" style="fill:none;"/>
            <clipPath id="_clip1">
                <rect x="0" y="0" width="4133.86" height="2362.2"/>
            </clipPath>
            <g clip-path="url(#_clip1)">
                <g id="Logo" transform="matrix(1.49779,0,0,0.890117,-529.79,-393.701)">
                    <path d="M1006.57,572.365C991.836,572.365 979.483,566.129 969.506,553.658C959.528,541.186 954.539,525.745 954.539,507.334C954.539,488.923 959.528,473.482 969.506,461.01C979.483,448.538 991.836,442.302 1006.57,442.302C1020.82,442.302 1032.93,448.538 1042.91,461.01C1052.89,473.482 1057.88,488.923 1057.88,507.334C1057.88,525.745 1052.89,541.186 1042.91,553.658C1032.93,566.129 1020.82,572.365 1006.57,572.365ZM1046.47,637.397L1046.47,1128.25L965.229,1128.25L965.229,637.397L1046.47,637.397ZM1338.67,629.379C1369.55,629.379 1397.23,637.397 1421.7,653.432C1446.16,669.467 1465.29,693.223 1479.07,724.699C1492.85,756.175 1499.73,794.185 1499.73,838.727L1499.73,1128.25L1419.2,1128.25L1419.2,853.871C1419.2,809.923 1410.41,776.219 1392.83,752.76C1375.25,729.302 1351.26,717.572 1320.85,717.572C1290.45,717.572 1266.33,729.302 1248.52,752.76C1230.7,776.219 1221.79,809.923 1221.79,853.871L1221.79,1128.25L1140.55,1128.25L1140.55,637.397L1221.79,637.397L1221.79,693.52C1235.1,673.327 1252.08,657.589 1272.75,646.305C1293.41,635.021 1315.39,629.379 1338.67,629.379ZM1623.03,572.365C1608.3,572.365 1595.94,566.129 1585.97,553.658C1575.99,541.186 1571,525.745 1571,507.334C1571,488.923 1575.99,473.482 1585.97,461.01C1595.94,448.538 1608.3,442.302 1623.03,442.302C1637.28,442.302 1649.39,448.538 1659.37,461.01C1669.35,473.482 1674.34,488.923 1674.34,507.334C1674.34,525.745 1669.35,541.186 1659.37,553.658C1649.39,566.129 1637.28,572.365 1623.03,572.365ZM1662.94,637.397L1662.94,1128.25L1581.69,1128.25L1581.69,637.397L1662.94,637.397ZM1864.62,720.245L1864.62,991.951C1864.62,1010.36 1868.07,1023.58 1874.96,1031.59C1881.85,1039.61 1893.6,1043.62 1910.23,1043.62L1960.12,1043.62L1960.12,1128.25L1895.98,1128.25C1859.4,1128.25 1831.36,1117.56 1811.88,1096.18C1792.4,1074.8 1782.66,1040.06 1782.66,991.951L1782.66,720.245L1736.34,720.245L1736.34,637.397L1782.66,637.397L1782.66,515.351L1864.62,515.351L1864.62,637.397L1960.12,637.397L1960.12,720.245L1864.62,720.245ZM2384.87,870.797C2384.87,889.208 2383.92,905.837 2382.02,920.684L2081.99,920.684C2084.36,959.881 2096,991.357 2116.91,1015.11C2137.81,1038.87 2163.47,1050.75 2193.88,1050.75C2237.59,1050.75 2268.47,1027.88 2286.53,982.152L2374.18,982.152C2362.3,1027.29 2340.81,1064.26 2309.69,1093.06C2278.57,1121.87 2239.96,1136.27 2193.88,1136.27C2156.34,1136.27 2122.73,1125.73 2093.03,1104.64C2063.34,1083.56 2040.06,1053.87 2023.19,1015.56C2006.33,977.252 1997.89,932.859 1997.89,882.378C1997.89,831.897 2006.09,787.503 2022.48,749.197C2038.87,710.891 2061.91,681.345 2091.61,660.558C2121.3,639.772 2155.39,629.379 2193.88,629.379C2230.94,629.379 2263.96,639.475 2292.94,659.668C2321.92,679.86 2344.49,708.218 2360.64,744.743C2376.8,781.267 2384.87,823.285 2384.87,870.797ZM2300.07,838.727C2299.59,801.311 2288.9,771.32 2267.99,748.752C2247.09,726.184 2221.2,714.9 2190.31,714.9C2162.28,714.9 2138.29,726.035 2118.33,748.306C2098.38,770.577 2086.5,800.717 2082.7,838.727L2300.07,838.727ZM1205.4,1688.59C1217.28,1663.64 1233.08,1644.19 1252.79,1630.24C1272.51,1616.28 1295.91,1609.3 1322.99,1609.3L1322.99,1714.42L1302.32,1714.42C1270.49,1714.42 1246.38,1724.52 1229.99,1744.71C1213.6,1764.9 1205.4,1799.94 1205.4,1849.83L1205.4,2108.18L1124.15,2108.18L1124.15,1617.32L1205.4,1617.32L1205.4,1688.59ZM1737.77,1850.72C1737.77,1869.13 1736.82,1885.76 1734.92,1900.61L1434.88,1900.61C1437.26,1939.81 1448.9,1971.28 1469.8,1995.04C1490.71,2018.79 1516.36,2030.67 1546.77,2030.67C1590.48,2030.67 1621.36,2007.81 1639.42,1962.08L1727.08,1962.08C1715.2,2007.21 1693.7,2044.18 1662.58,2072.99C1631.46,2101.79 1592.86,2116.19 1546.77,2116.19C1509.24,2116.19 1475.62,2105.65 1445.93,2084.57C1416.23,2063.48 1392.95,2033.79 1376.09,1995.48C1359.22,1957.18 1350.79,1912.78 1350.79,1862.3C1350.79,1811.82 1358.98,1767.43 1375.37,1729.12C1391.76,1690.82 1414.81,1661.27 1444.5,1640.48C1474.2,1619.7 1508.29,1609.3 1546.77,1609.3C1583.83,1609.3 1616.85,1619.4 1645.83,1639.59C1674.81,1659.79 1697.38,1688.14 1713.54,1724.67C1729.69,1761.19 1737.77,1803.21 1737.77,1850.72ZM1652.96,1818.65C1652.48,1781.24 1641.79,1751.25 1620.89,1728.68C1599.98,1706.11 1574.09,1694.83 1543.21,1694.83C1515.17,1694.83 1491.18,1705.96 1471.23,1728.23C1451.27,1750.5 1439.39,1780.64 1435.59,1818.65L1652.96,1818.65ZM1790.5,1860.52C1790.5,1811.23 1798.7,1767.58 1815.09,1729.57C1831.48,1691.56 1853.81,1662.01 1882.08,1640.93C1910.35,1619.85 1941.59,1609.3 1975.8,1609.3C2006.68,1609.3 2033.64,1616.88 2056.69,1632.02C2079.73,1647.16 2098.14,1666.02 2111.92,1688.59L2111.92,1617.32L2193.88,1617.32L2193.88,2108.18L2111.92,2108.18L2111.92,2035.13C2098.14,2058.29 2079.37,2077.59 2055.62,2093.03C2031.86,2108.47 2004.78,2116.19 1974.37,2116.19C1940.64,2116.19 1909.76,2105.35 1881.73,2083.68C1853.69,2062 1831.48,2031.71 1815.09,1992.81C1798.7,1953.91 1790.5,1909.81 1790.5,1860.52ZM2111.92,1862.3C2111.92,1828.45 2106.34,1799.05 2095.17,1774.11C2084.01,1749.17 2069.4,1730.16 2051.34,1717.1C2033.29,1704.03 2013.81,1697.5 1992.9,1697.5C1972,1697.5 1952.52,1703.88 1934.46,1716.65C1916.41,1729.42 1901.8,1748.13 1890.63,1772.77C1879.47,1797.42 1873.89,1826.67 1873.89,1860.52C1873.89,1894.37 1879.47,1924.07 1890.63,1949.61C1901.8,1975.14 1916.53,1994.59 1934.82,2007.96C1953.11,2021.32 1972.47,2028 1992.9,2028C2013.81,2028 2033.29,2021.47 2051.34,2008.4C2069.4,1995.34 2084.01,1976.18 2095.17,1950.94C2106.34,1925.7 2111.92,1896.15 2111.92,1862.3ZM2737.65,1609.3C2768.53,1609.3 2796.2,1617.32 2820.67,1633.36C2845.14,1649.39 2864.38,1673.15 2878.4,1704.62C2892.41,1736.1 2899.42,1774.11 2899.42,1818.65L2899.42,2108.18L2818.89,2108.18L2818.89,1833.8C2818.89,1789.85 2810.1,1756.14 2792.52,1732.68C2774.94,1709.23 2750.95,1697.5 2720.54,1697.5C2690.14,1697.5 2666.02,1709.23 2648.21,1732.68C2630.39,1756.14 2621.48,1789.85 2621.48,1833.8L2621.48,2108.18L2540.95,2108.18L2540.95,1833.8C2540.95,1789.85 2532.16,1756.14 2514.58,1732.68C2497,1709.23 2473.01,1697.5 2442.6,1697.5C2412.19,1697.5 2388.08,1709.23 2370.26,1732.68C2352.45,1756.14 2343.54,1789.85 2343.54,1833.8L2343.54,2108.18L2262.29,2108.18L2262.29,1617.32L2343.54,1617.32L2343.54,1673.44C2356.84,1653.25 2373.71,1637.51 2394.14,1626.23C2414.57,1614.95 2436.42,1609.3 2459.7,1609.3C2491.06,1609.3 2519.09,1617.62 2543.8,1634.25C2568.51,1650.88 2587.51,1674.93 2600.81,1706.41C2612.69,1676.71 2631.22,1653.1 2656.4,1635.58C2681.58,1618.06 2708.66,1609.3 2737.65,1609.3ZM788.487,3094.34C755.229,3094.34 725.296,3087.06 698.69,3072.51C672.083,3057.96 651.178,3037.32 635.975,3010.6C620.771,2983.87 613.169,2952.69 613.169,2917.06L700.115,2917.06C702.016,2943.78 710.449,2965.76 725.415,2982.98C740.381,3000.2 761.405,3008.82 788.487,3008.82C816.518,3008.82 838.374,3000.35 854.053,2983.43C869.731,2966.5 877.571,2944.67 877.571,2917.95C877.571,2897.16 872.701,2880.24 862.961,2867.17C853.221,2854.11 841.106,2844.01 826.615,2836.88C812.124,2829.76 792.05,2822.03 766.394,2813.72C734.086,2803.03 707.836,2792.19 687.643,2781.2C667.451,2770.22 650.228,2753.14 635.975,2729.98C621.721,2706.82 614.595,2675.94 614.595,2637.33C614.595,2601.7 621.721,2570.52 635.975,2543.8C650.228,2517.07 670.183,2496.58 695.839,2482.33C721.495,2468.08 751.19,2460.95 784.923,2460.95C832.91,2460.95 872.226,2475.94 902.871,2505.93C933.516,2535.93 950.501,2577.05 953.827,2629.32L864.03,2629.32C862.605,2606.75 854.053,2587.45 838.374,2571.41C822.695,2555.38 802.027,2547.36 776.371,2547.36C753.091,2547.36 734.086,2554.78 719.357,2569.63C704.629,2584.48 697.265,2605.86 697.265,2633.77C697.265,2652.78 701.897,2668.37 711.162,2680.54C720.426,2692.72 732.186,2702.37 746.439,2709.49C760.692,2716.62 780.172,2724.34 804.878,2732.65C837.661,2743.94 864.386,2755.22 885.054,2766.51C905.721,2777.79 923.301,2795.16 937.792,2818.62C952.283,2842.08 959.528,2873.41 959.528,2912.6C959.528,2944.08 952.758,2973.78 939.217,3001.69C925.676,3029.6 905.959,3052.02 880.065,3068.95C854.171,3085.87 823.645,3094.34 788.487,3094.34ZM1137.7,2680.1L1137.7,2951.8C1137.7,2970.21 1141.14,2983.43 1148.03,2991.44C1154.92,2999.46 1166.68,3003.47 1183.31,3003.47L1233.19,3003.47L1233.19,3088.1L1169.05,3088.1C1132.47,3088.1 1104.44,3077.41 1084.96,3056.03C1065.48,3034.65 1055.74,2999.91 1055.74,2951.8L1055.74,2680.1L1009.42,2680.1L1009.42,2597.25L1055.74,2597.25L1055.74,2475.2L1137.7,2475.2L1137.7,2597.25L1233.19,2597.25L1233.19,2680.1L1137.7,2680.1ZM1663.65,2597.25L1663.65,3088.1L1582.4,3088.1L1582.4,3030.2C1569.58,3050.39 1552.83,3066.27 1532.16,3077.86C1511.49,3089.44 1489.52,3095.23 1466.24,3095.23C1435.36,3095.23 1407.68,3087.21 1383.21,3071.17C1358.74,3055.14 1339.5,3031.38 1325.49,2999.91C1311.47,2968.43 1304.46,2930.42 1304.46,2885.88L1304.46,2597.25L1384.99,2597.25L1384.99,2870.74C1384.99,2914.68 1393.78,2948.39 1411.36,2971.85C1428.94,2995.3 1452.93,3007.03 1483.34,3007.03C1513.75,3007.03 1537.86,2995.3 1555.68,2971.85C1573.5,2948.39 1582.4,2914.68 1582.4,2870.74L1582.4,2597.25L1663.65,2597.25ZM1728.5,2840.45C1728.5,2791.15 1736.7,2747.5 1753.09,2709.49C1769.48,2671.48 1791.81,2641.94 1820.08,2620.85C1848.35,2599.77 1879.83,2589.23 1914.51,2589.23C1940.17,2589.23 1965.47,2596.21 1990.41,2610.16C2015.35,2624.12 2035.19,2642.68 2049.92,2665.84L2049.92,2428.88L2131.88,2428.88L2131.88,3088.1L2049.92,3088.1L2049.92,3014.16C2036.61,3037.92 2018.2,3057.51 1994.68,3072.95C1971.17,3088.4 1944.2,3096.12 1913.8,3096.12C1879.59,3096.12 1848.35,3085.28 1820.08,3063.6C1791.81,3041.92 1769.48,3011.64 1753.09,2972.74C1736.7,2933.84 1728.5,2889.74 1728.5,2840.45ZM2049.92,2842.23C2049.92,2808.38 2044.34,2778.98 2033.17,2754.03C2022,2729.09 2007.39,2710.09 1989.34,2697.02C1971.29,2683.95 1951.81,2677.42 1930.9,2677.42C1910,2677.42 1890.52,2683.81 1872.46,2696.58C1854.41,2709.34 1839.8,2728.05 1828.63,2752.7C1817.47,2777.35 1811.88,2806.59 1811.88,2840.45C1811.88,2874.3 1817.47,2903.99 1828.63,2929.53C1839.8,2955.07 1854.53,2974.52 1872.82,2987.88C1891.11,3001.24 1910.47,3007.92 1930.9,3007.92C1951.81,3007.92 1971.29,3001.39 1989.34,2988.33C2007.39,2975.26 2022,2956.11 2033.17,2930.87C2044.34,2905.63 2049.92,2876.08 2049.92,2842.23ZM2260.16,2532.22C2245.43,2532.22 2233.07,2525.98 2223.1,2513.51C2213.12,2501.04 2208.13,2485.59 2208.13,2467.18C2208.13,2448.77 2213.12,2433.33 2223.1,2420.86C2233.07,2408.39 2245.43,2402.15 2260.16,2402.15C2274.41,2402.15 2286.53,2408.39 2296.5,2420.86C2306.48,2433.33 2311.47,2448.77 2311.47,2467.18C2311.47,2485.59 2306.48,2501.04 2296.5,2513.51C2286.53,2525.98 2274.41,2532.22 2260.16,2532.22ZM2300.07,2597.25L2300.07,3088.1L2218.82,3088.1L2218.82,2597.25L2300.07,2597.25ZM2565.18,3096.12C2528.12,3096.12 2494.62,3085.58 2464.69,3064.49C2434.76,3043.41 2411.24,3013.72 2394.14,2975.41C2377.03,2937.1 2368.48,2892.71 2368.48,2842.23C2368.48,2792.34 2377.27,2748.1 2394.85,2709.49C2412.43,2670.89 2436.42,2641.2 2466.83,2620.41C2497.24,2599.62 2531.21,2589.23 2568.74,2589.23C2606.28,2589.23 2640.25,2599.62 2670.66,2620.41C2701.06,2641.2 2725.06,2670.89 2742.64,2709.49C2760.21,2748.1 2769,2792.34 2769,2842.23C2769,2892.12 2759.98,2936.36 2741.92,2974.96C2723.87,3013.57 2699.28,3043.41 2668.16,3064.49C2637.04,3085.58 2602.71,3096.12 2565.18,3096.12ZM2565.18,3007.92C2586.09,3007.92 2605.68,3001.69 2623.97,2989.22C2642.27,2976.74 2657.11,2958.04 2668.52,2933.09C2679.92,2908.15 2685.62,2877.86 2685.62,2842.23C2685.62,2806.59 2680.16,2776.45 2669.23,2751.81C2658.3,2727.16 2643.81,2708.6 2625.76,2696.13C2607.7,2683.66 2588.22,2677.42 2567.32,2677.42C2546.41,2677.42 2527.05,2683.66 2509.24,2696.13C2491.42,2708.6 2477.28,2727.16 2466.83,2751.81C2456.38,2776.45 2451.15,2806.59 2451.15,2842.23C2451.15,2895.08 2461.96,2935.91 2483.58,2964.72C2505.2,2993.52 2532.4,3007.92 2565.18,3007.92ZM2963.56,3096.12C2932.68,3096.12 2905.01,3089.14 2880.54,3075.18C2856.07,3061.23 2836.71,3042.22 2822.45,3018.17C2808.2,2994.12 2800.6,2967.24 2799.65,2937.55L2883.74,2937.55C2885.17,2958.33 2893.13,2975.7 2907.62,2989.66C2922.11,3003.62 2940.28,3010.6 2962.14,3010.6C2984.94,3010.6 3002.64,3005.1 3015.23,2994.12C3027.82,2983.13 3034.12,2969.02 3034.12,2951.8C3034.12,2933.39 3027.11,2919.73 3013.09,2910.82C2999.08,2901.91 2976.87,2892.12 2946.46,2881.43C2917,2871.33 2893.01,2861.53 2874.48,2852.03C2855.95,2842.53 2839.91,2827.97 2826.37,2808.38C2812.83,2788.78 2806.06,2762.94 2806.06,2730.87C2806.06,2704.74 2812.24,2680.84 2824.59,2659.16C2836.95,2637.48 2854.64,2620.41 2877.69,2607.94C2900.73,2595.47 2927.22,2589.23 2957.15,2589.23C3001.81,2589.23 3037.8,2603.33 3065.12,2631.54C3092.44,2659.75 3107.05,2698.21 3108.95,2746.91L3027.7,2746.91C3026.28,2724.93 3019.15,2707.41 3006.32,2694.35C2993.5,2681.28 2976.15,2674.75 2954.3,2674.75C2932.92,2674.75 2916.53,2679.8 2905.12,2689.89C2893.72,2699.99 2888.02,2713.35 2888.02,2729.98C2888.02,2743.05 2891.82,2754.03 2899.42,2762.94C2907.03,2771.85 2916.29,2778.83 2927.22,2783.88C2938.14,2788.93 2954.3,2795.31 2975.68,2803.03C3004.19,2812.53 3027.59,2822.18 3045.88,2831.98C3064.17,2841.78 3079.97,2856.18 3093.27,2875.19C3106.57,2894.19 3113.46,2919.43 3113.94,2950.91C3113.94,2978.82 3107.76,3003.77 3095.41,3025.74C3083.06,3047.72 3065.6,3064.94 3043.03,3077.41C3020.46,3089.88 2993.97,3096.12 2963.56,3096.12ZM900.932,484.588L900.932,570.091L681.31,570.091C685.458,623.035 695.351,665.524 717.206,697.074C749.473,743.654 806.423,762.472 900.932,762.472L900.932,847.975C806.423,847.975 749.473,866.794 717.206,913.374C684.616,960.417 678.625,1031.78 678.625,1125.86L610.222,1125.86C610.222,912.121 570.583,805.224 353.714,805.224C570.583,805.224 610.222,698.327 610.222,484.588L900.932,484.588ZM719.064,805.224C697.247,791.02 679.676,773.516 665.492,753.042C648.388,728.347 635.985,698.701 627.323,663.986C622.722,682.412 617.071,699.411 610.222,714.999C604.167,728.777 597.176,741.452 589.15,753.042C574.97,773.511 557.395,791.02 535.578,805.224C557.395,819.428 574.97,836.937 589.15,857.405C597.176,868.991 604.167,881.671 610.222,895.449C617.071,911.036 622.722,928.036 627.323,946.462C635.985,911.747 648.388,882.101 665.492,857.405C679.676,836.937 697.247,819.428 719.064,805.224ZM1040.59,1789.23C1040.6,1790.3 1040.62,1791.38 1040.62,1792.46C1040.62,1969.52 925.796,2113.05 784.154,2113.05L613.169,2113.05L613.169,1471.87L784.154,1471.87C818.933,1471.87 852.09,1480.54 882.333,1496.22L856.155,1575.21C850.085,1572.07 843.858,1569.29 837.486,1566.94C858.855,1632.31 873.062,1710.32 873.062,1792.46C873.062,1874.59 858.855,1952.6 837.486,2017.97C915.381,1989.23 972.232,1899.14 972.232,1792.46C972.232,1791.63 972.217,1790.79 972.21,1789.96L1040.59,1789.23ZM784.154,2027.56C788.473,2027.56 792.759,2027.37 797.011,2027.01C821.704,1961.83 838.866,1879.63 838.866,1792.46C838.866,1705.29 821.704,1623.09 797.011,1557.9C792.759,1557.54 788.473,1557.36 784.154,1557.36L681.561,1557.36L681.561,2027.56L784.154,2027.56ZM883.62,1529.49L909.802,1450.5C933.463,1462.76 955.348,1479.32 974.813,1499.41L931.29,1565.37C917.016,1550.63 900.976,1538.48 883.62,1529.49ZM964.611,1542.25L1008.13,1476.29C1021.39,1489.98 1033.52,1505.31 1044.34,1522.02L991.171,1575.77C983.231,1563.52 974.334,1552.29 964.611,1542.25ZM964.611,1629.53L1017.78,1575.77C1052.96,1630.07 1074.23,1699.01 1074.82,1774.15L1006.44,1774.88C1005.98,1719.83 990.389,1669.32 964.611,1629.53Z" style="fill:white;"/>
                </g>
            </g>
        </g>
    </g>
</svg>
