<?xml version="1.0" encoding="UTF-8" standalone="no"?>
<!DOCTYPE svg PUBLIC "-//W3C//DTD SVG 1.1//EN" "http://www.w3.org/Graphics/SVG/1.1/DTD/svg11.dtd">
<svg width="100%" height="100%" viewBox="0 0 3544 1772" version="1.1" xmlns="http://www.w3.org/2000/svg" xmlns:xlink="http://www.w3.org/1999/xlink" xml:space="preserve" xmlns:serif="http://www.serif.com/" style="fill-rule:evenodd;clip-rule:evenodd;stroke-linejoin:round;stroke-miterlimit:2;">
    <g transform="matrix(1,0,0,1,-8539,0)">
        <g id="Bildmarke-positiv" serif:id="Bildmarke positiv" transform="matrix(0.857143,0,0,0.75,8539,0)">
            <rect x="0" y="0" width="4133.86" height="2362.2" style="fill:none;"/>
            <clipPath id="_clip1">
                <rect x="0" y="0" width="4133.86" height="2362.2"/>
            </clipPath>
            <g clip-path="url(#_clip1)">
                <g id="Logo" transform="matrix(4.86112,0,0,5.55556,3704.09,1723.89)">
                    <path d="M0,-195.403L42.653,-229.903C70.872,-195.058 87.932,-150.814 88.409,-102.595L33.555,-102.124C33.186,-137.453 20.678,-169.869 0,-195.403M0,-251.414L34.913,-293.744C45.548,-284.962 55.276,-275.123 63.958,-264.402L21.305,-229.903C14.938,-237.764 7.799,-244.974 0,-251.414M-64.97,-259.606L-43.969,-310.3C-24.986,-302.426 -7.431,-291.803 8.184,-278.909L-26.729,-236.58C-38.18,-246.035 -51.049,-253.832 -64.97,-259.606M-144.763,60.033L-227.059,60.033L-227.059,-241.72L-144.763,-241.72C-141.297,-241.72 -137.858,-241.602 -134.449,-241.372C-114.64,-199.536 -100.872,-146.785 -100.872,-90.843C-100.872,-34.901 -114.64,17.849 -134.449,59.686C-137.858,59.916 -141.297,60.033 -144.763,60.033M6.097,-92.446C6.102,-91.911 6.113,-91.378 6.113,-90.843C6.113,-22.378 -39.491,35.436 -101.979,53.881C-84.836,11.932 -73.44,-38.132 -73.44,-90.843C-73.44,-143.555 -84.836,-193.619 -101.979,-235.568C-96.868,-234.059 -91.873,-232.282 -87.004,-230.263L-66.003,-280.956C-90.264,-291.019 -116.862,-296.584 -144.763,-296.584L-281.923,-296.584L-281.923,114.897L-144.763,114.897C-31.136,114.897 60.977,22.784 60.977,-90.843C60.977,-91.536 60.958,-92.225 60.951,-92.917L6.097,-92.446ZM-556.244,114.897C-556.244,-22.251 -588.036,-90.843 -761.984,-90.843C-588.036,-90.843 -556.244,-159.435 -556.244,-296.584L-323.072,-296.584L-323.072,-241.719L-499.225,-241.719C-495.899,-207.748 -487.962,-180.484 -470.434,-160.24C-444.555,-130.351 -398.877,-118.275 -323.072,-118.275L-323.072,-63.411C-398.877,-63.411 -444.555,-51.336 -470.434,-21.447C-496.572,8.739 -501.38,54.532 -501.38,114.897L-556.244,114.897ZM-556.244,-148.738C-561.101,-139.897 -566.708,-131.762 -573.145,-124.327C-584.518,-111.191 -598.615,-99.956 -616.113,-90.843C-598.615,-81.73 -584.518,-70.495 -573.145,-57.36C-566.708,-49.925 -561.101,-41.79 -556.244,-32.949C-550.751,-22.946 -546.217,-12.039 -542.528,-0.216C-535.578,-22.49 -525.632,-41.513 -511.911,-57.36C-500.537,-70.495 -486.441,-81.73 -468.943,-90.843C-486.441,-99.956 -500.537,-111.19 -511.911,-124.326C-525.632,-140.172 -535.578,-159.195 -542.528,-181.471C-546.217,-169.647 -550.751,-158.74 -556.244,-148.738"/>
                </g>
            </g>
        </g>
    </g>
</svg>
